<?xml version="1.0" standalone="no"?>
<svg xmlns="http://www.w3.org/2000/svg" viewBox="0 0 205.54399999999998 48.166666666666664" width="205.54399999999998" height="48.166666666666664"><rect fill="none" stroke="#000000" stroke-width="3" width="202.54399999999998" height="45.166666666666664" x="1.5" y="1.5"></rect><g fill="#000000" color="#000000" transform="translate(12, 12) scale(0.6041667)"><svg width="48.0" height="40.0" x="0.0" y="0.0" viewBox="0 0 48 40"><path fill="currentColor" fill-rule="evenodd" d="M41.576 0L12.872 28.703v-2.95L38.625 0h-4.1l-10.9 10.898L12.725 0h-4.1l12.949 12.95-1.476 1.474L5.675 0h-4.1l16.474 16.475-1.475 1.475L0 1.376V40h2.9V8.378l2.087 2.086V40h2.9V13.364l2.086 2.087V40h2.9v-.146l10.752-10.752L34.525 40h2.951V15.253l2.086-2.087V40h2.9V10.266l2.087-2.086V40h2.898V5.434h-.153l.153-.154V1.178L12.872 35.754v-2.95L45.675 0h-4.1zm-8.849 20l1.848-1.848v3.697L32.727 20zm-19.855-1.65L14.522 20l-1.65 1.65V18.35zm16.329 5.176l1.476-1.474 3.898 3.899v2.952l-5.374-5.377zm-3.526 3.526l1.475-1.476 7.425 7.426v2.95l-8.9-8.9z"></path></svg></g><line x1="51.5" y1="0" x2="51.5" y2="100%" stroke="#000000" stroke-width="3"></line><path fill="#000000" fill-rule="nonzero" d="M15.84 0.41Q15.86 0.60 15.86 1.01Q15.86 1.42 15.79 1.75L15.79 1.75L14.88 1.82Q14.86 2.50 14.86 3.82L14.86 3.82Q14.86 9.70 15.38 14.33L15.38 14.33L16.27 14.40Q16.32 14.78 16.32 15.06Q16.32 15.34 16.25 15.74L16.25 15.74Q15.41 15.72 14.30 15.72Q13.20 15.72 12.38 15.74L12.38 15.74Q12.31 15.38 12.31 15.11Q12.31 14.83 12.36 14.40L12.36 14.40L13.15 14.33Q13.20 12.60 13.20 10.38Q13.20 8.16 12.98 4.20L12.98 4.20Q12.74 4.70 11.78 6.65L11.78 6.65Q9.65 10.90 8.86 12.91L8.86 12.91Q8.38 13.10 7.84 13.10Q7.30 13.10 7.10 13.08L7.10 13.08Q6.26 11.06 4.72 8.20Q3.17 5.33 2.88 4.80L2.88 4.80Q2.69 8.21 2.69 10.57Q2.69 12.94 2.74 14.33L2.74 14.33L3.62 14.40Q3.67 14.78 3.67 15.06Q3.67 15.34 3.60 15.74L3.60 15.74Q2.83 15.72 1.82 15.72Q0.82 15.72 0.07 15.74L0.07 15.74Q0 15.38 0 15.11Q0 14.83 0.05 14.40L0.05 14.40L0.89 14.33Q1.39 9.96 1.39 3.98L1.39 3.98Q1.39 2.83 1.32 1.82L1.32 1.82L0.43 1.75Q0.36 1.42 0.36 1.01Q0.36 0.60 0.38 0.41L0.38 0.41Q2.35 0.36 3.36 0.29L3.36 0.29Q3.77 2.50 8.21 10.68L8.21 10.68Q11.88 3.50 12.50 0.29L12.50 0.29Q13.39 0.36 15.84 0.41L15.84 0.41ZM18.96 7.87L18.96 7.87Q18.96 0 24.85 0Q30.74 0 30.74 7.87L30.74 7.87Q30.74 9.31 30.64 10.39Q30.53 11.47 30.16 12.60Q29.78 13.73 29.16 14.45Q28.54 15.17 27.44 15.62Q26.35 16.08 24.85 16.08Q23.35 16.08 22.26 15.62Q21.17 15.17 20.54 14.45Q19.92 13.73 19.55 12.60Q19.18 11.47 19.07 10.39Q18.96 9.31 18.96 7.87ZM22.82 13.78L22.82 13.78Q23.64 14.30 24.85 14.30Q26.06 14.30 26.89 13.78Q27.72 13.25 28.13 12.26L28.13 12.26Q28.85 10.56 28.85 7.90L28.85 7.90Q28.85 1.42 24.85 1.42Q20.86 1.42 20.86 7.90L20.86 7.90Q20.86 12.53 22.82 13.78ZM33.67 14.40L34.51 14.33Q34.73 11.02 34.73 7.34Q34.73 3.67 34.51 1.70L34.51 1.70L33.70 1.63Q33.65 1.25 33.65 0.97Q33.65 0.70 33.72 0.29L33.72 0.29Q34.56 0.31 35.66 0.31Q36.77 0.31 37.58 0.29L37.58 0.29Q37.66 0.65 37.66 0.92Q37.66 1.20 37.61 1.63L37.61 1.63L36.70 1.70Q36.53 3.96 36.53 7.91Q36.53 11.86 36.70 13.90L36.70 13.90Q37.44 13.97 38.87 13.97Q40.30 13.97 41.04 13.85L41.04 13.85L41.11 12.22Q41.52 12.14 41.84 12.14Q42.17 12.14 42.46 12.17L42.46 12.17Q42.53 13.99 42.67 15.72L42.67 15.72L42.55 15.84Q41.42 15.72 37.97 15.72Q34.51 15.72 33.70 15.74L33.70 15.74Q33.62 15.38 33.62 15.11Q33.62 14.83 33.67 14.40L33.67 14.40ZM48.46 1.63L47.54 1.70Q47.38 3.65 47.38 7.73Q47.38 11.81 47.59 14.33L47.59 14.33L48.46 14.40Q48.50 14.78 48.50 15.06Q48.50 15.34 48.43 15.74L48.43 15.74Q47.59 15.72 46.49 15.72Q45.38 15.72 44.57 15.74L44.57 15.74Q44.50 15.38 44.50 15.11Q44.50 14.83 44.54 14.40L44.54 14.40L45.38 14.33Q45.58 11.74 45.58 7.72Q45.58 3.70 45.36 1.70L45.36 1.70L44.54 1.63Q44.50 1.25 44.50 0.97Q44.50 0.70 44.57 0.29L44.57 0.29Q45.41 0.31 46.51 0.31Q47.62 0.31 48.43 0.29L48.43 0.29Q48.50 0.65 48.50 0.92Q48.50 1.20 48.46 1.63L48.46 1.63ZM61.90 12.24L61.90 12.24Q61.97 10.22 61.97 6.96Q61.97 3.70 61.75 1.70L61.75 1.70L60.86 1.63Q60.82 1.25 60.82 0.97Q60.82 0.70 60.89 0.29L60.89 0.29Q61.66 0.31 62.65 0.31Q63.65 0.31 64.39 0.29L64.39 0.29Q64.46 0.65 64.46 0.92Q64.46 1.20 64.42 1.63L64.42 1.63L63.58 1.70Q63.41 3.65 63.41 9.01Q63.41 14.38 63.82 15.67L63.82 15.67Q63.10 15.91 62.77 15.91Q62.45 15.91 61.63 15.86L61.63 15.86Q61.46 15.12 60.22 13.16Q58.97 11.21 57.11 8.50Q55.25 5.78 54.43 4.44L54.43 4.44Q54.41 5.47 54.41 8.64Q54.41 11.81 54.62 14.33L54.62 14.33L55.51 14.40Q55.56 14.78 55.56 15.06Q55.56 15.34 55.49 15.74L55.49 15.74Q54.72 15.72 53.71 15.72Q52.70 15.72 51.96 15.74L51.96 15.74Q51.89 15.38 51.89 15.11Q51.89 14.83 51.94 14.40L51.94 14.40L52.78 14.33Q52.97 11.74 52.97 7.76Q52.97 3.79 52.75 1.82L52.75 1.82L51.82 1.75Q51.74 1.42 51.74 1.01Q51.74 0.60 51.77 0.41L51.77 0.41Q53.81 0.36 54.79 0.29L54.79 0.29Q55.25 2.02 57.38 5.47Q59.52 8.93 61.90 12.24ZM69.60 1.75Q69.53 1.46 69.53 1.01Q69.53 0.55 69.55 0.41L69.55 0.41Q71.66 0.14 72.70 0.14Q73.73 0.14 74.45 0.38L74.45 0.38Q75.02 4.90 78.46 14.33L78.46 14.33L79.34 14.40Q79.39 14.93 79.39 15.13Q79.39 15.34 79.32 15.74L79.32 15.74Q78.65 15.72 77.23 15.72Q75.82 15.72 75.26 15.74L75.26 15.74Q75.19 15.38 75.19 15.06Q75.19 14.74 75.24 14.40L75.24 14.40L76.08 14.33Q75.96 13.75 75.70 12.66Q75.43 11.57 75.41 11.45L75.41 11.45Q74.04 11.38 72.44 11.38Q70.85 11.38 69.46 11.47L69.46 11.47L68.78 14.33L69.70 14.40Q69.74 14.93 69.74 15.13Q69.74 15.34 69.67 15.74L69.67 15.74Q69.10 15.72 67.79 15.72Q66.48 15.72 65.95 15.74L65.95 15.74Q65.88 15.38 65.88 15.06Q65.88 14.74 65.93 14.40L65.93 14.40L66.77 14.33Q69.65 6.43 70.56 1.82L70.56 1.82L69.60 1.75ZM69.89 9.79L69.89 9.79Q70.70 9.82 72.34 9.82Q73.97 9.82 74.98 9.74L74.98 9.74Q73.85 5.47 72.60 1.85L72.60 1.85L72.46 1.85Q71.04 5.28 69.89 9.79ZM92.06 16.08L92.06 16.08Q90.55 16.08 89.24 15.91Q87.94 15.74 86.47 15.67L86.47 15.67Q86.45 15.53 86.45 15.10Q86.45 14.66 86.52 14.33L86.52 14.33L87.48 14.26Q87.70 11.81 87.70 7.76Q87.70 3.72 87.46 1.82L87.46 1.82L86.52 1.75Q86.45 1.46 86.45 1.01Q86.45 0.55 86.47 0.41L86.47 0.41Q88.06 0.38 89.33 0.19Q90.60 0 92.06 0L92.06 0Q95.11 0 96.74 2.05Q98.38 4.10 98.38 7.92L98.38 7.92Q98.38 16.08 92.06 16.08ZM92.06 14.38L92.06 14.38Q94.13 14.38 95.22 12.72Q96.31 11.06 96.31 7.93Q96.31 4.80 95.21 3.11Q94.10 1.42 92.04 1.42L92.04 1.42Q90.84 1.42 89.66 1.87L89.66 1.87Q89.50 3.91 89.50 7.80Q89.50 11.69 89.69 13.87L89.69 13.87Q90.82 14.38 92.06 14.38ZM108.24 6.89L108.31 5.98Q108.84 5.93 109.03 5.93Q109.22 5.93 109.66 6L109.66 6Q109.63 6.74 109.63 7.92Q109.63 9.10 109.66 9.46L109.66 9.46Q109.30 9.53 108.96 9.53Q108.62 9.53 108.31 9.48L108.31 9.48L108.24 8.64Q106.94 8.59 106.10 8.59Q105.26 8.59 103.97 8.64L103.97 8.64Q103.97 11.78 104.14 13.90L104.14 13.90Q104.98 13.97 106.52 13.97Q108.07 13.97 108.96 13.85L108.96 13.85L109.03 12.22Q109.44 12.14 109.79 12.14Q110.14 12.14 110.38 12.17L110.38 12.17Q110.40 14.04 110.59 15.72L110.59 15.72L110.47 15.84Q109.30 15.72 105.32 15.72Q101.35 15.72 101.14 15.74L101.14 15.74Q101.06 15.38 101.06 15.06Q101.06 14.74 101.11 14.40L101.11 14.40L101.95 14.33Q102.17 10.61 102.17 7.60Q102.17 4.58 101.88 1.78L101.88 1.78L101.06 1.70Q101.02 1.39 101.02 1.06Q101.02 0.72 101.09 0.36L101.09 0.36Q101.69 0.38 105.48 0.38Q109.27 0.38 110.35 0.17L110.35 0.17L110.47 0.29Q110.28 2.40 110.26 3.70L110.26 3.70Q110.02 3.72 109.66 3.72Q109.30 3.72 108.91 3.65L108.91 3.65L108.84 2.02Q107.62 1.94 106.30 1.94Q104.98 1.94 104.11 2.02L104.11 2.02Q103.97 3.53 103.97 6.96L103.97 6.96Q104.35 6.98 105.53 6.98Q106.70 6.98 108.24 6.89L108.24 6.89ZM112.87 1.70L111.98 1.63Q111.94 1.25 111.94 0.97Q111.94 0.70 112.01 0.29L112.01 0.29Q112.85 0.31 114.11 0.31Q115.37 0.31 116.28 0.29L116.28 0.29Q116.35 0.65 116.35 0.92Q116.35 1.20 116.30 1.63L116.30 1.63L115.46 1.70Q115.97 4.44 116.93 7.84Q117.89 11.23 118.87 13.63L118.87 13.63L119.02 13.63Q119.88 11.52 120.88 7.85Q121.87 4.18 122.28 1.70L122.28 1.70L121.39 1.63Q121.34 1.44 121.34 1.07Q121.34 0.70 121.42 0.29L121.42 0.29Q122.28 0.31 123.50 0.31Q124.73 0.31 125.47 0.29L125.47 0.29Q125.54 0.65 125.54 0.90Q125.54 1.15 125.50 1.63L125.50 1.63L124.66 1.70Q123.58 4.58 122.05 9.10Q120.53 13.61 120 15.72L120 15.72Q119.14 15.94 118.43 15.94Q117.72 15.94 117.50 15.91L117.50 15.91Q115.03 7.06 112.87 1.70L112.87 1.70Z" transform="translate(65 16.224)"></path></svg>